HIERARCHY
ROOT hip
{
  OFFSET 0.0 0.0 0.0
  CHANNELS 6 Xposition Yposition Zposition Zrotation Yrotation Xrotation
  JOINT torso
  {
    OFFSET 0.0 0.0 0.0
    CHANNELS 3 Zrotation Xrotation Yrotation
    JOINT neck
    {
      OFFSET -31.42098999999993 328.8025209999999 74.3554680000002
      CHANNELS 3 Zrotation Xrotation Yrotation
      JOINT head
      {
        OFFSET 3.3519900000001144 303.81732099999994 206.53942900000015
        CHANNELS 3 Zrotation Xrotation Yrotation
        End Site
        {
          OFFSET 0.0 0.0 0.0
        }
      }
    }
    JOINT left_collar
    {
      OFFSET -31.42098999999993 328.8025209999999 74.3554680000002
      CHANNELS 3 Zrotation Xrotation Yrotation
      JOINT left_upper_arm
      {
        OFFSET -124.490479 -8.162841999999841 8.226441000000023
        CHANNELS 3 Zrotation Xrotation Yrotation
        JOINT left_forearm
        {
          OFFSET -253.595764 -1.5758060000000569 105.0729980000001
          CHANNELS 3 Zrotation Xrotation Yrotation
          JOINT left_hand
          {
            OFFSET -269.48803699999996 0.1478270000000066 -55.346191999999974
            CHANNELS 3 Zrotation Xrotation Yrotation
            End Site
            {
              OFFSET 0.0 0.0 0.0
            }
          }
        }
      }
    }
    JOINT right_collar
    {
      OFFSET -31.42098999999993 328.8025209999999 74.3554680000002
      CHANNELS 3 Zrotation Xrotation Yrotation
      JOINT right_upper_arm
      {
        OFFSET 162.02484099999998 0.46441600000002836 2.2303470000001653
        CHANNELS 3 Zrotation Xrotation Yrotation
        JOINT right_forearm
        {
          OFFSET 240.01246700000004 -25.835875999999985 121.34179699999959
          CHANNELS 3 Zrotation Xrotation Yrotation
          JOINT right_hand
          {
            OFFSET 252.48539699999992 18.910399999999868 -67.53466800000001
            CHANNELS 3 Zrotation Xrotation Yrotation
            End Site
            {
              OFFSET 0.0 0.0 0.0
            }
          }
        }
      }
    }
  }
}
MOTION
Frames: 16
Frame Time: 0.01
-379.9670222704834 218.14557137331252 699.0457168258117 0.0075121811334025405 0.6137244569394317 -0.07713317652554179 0.45567115807158926 -1.4064706030349996 -0.242469706494892 -5.323075313352814 -3.382722374880536 3.7413949153137156 0.0 0.0 0.0 5.272426301363479 -0.5394227195518052 7.951584768157907 41.04121405725788 8.141889111767824 23.17761071512352 41.40716231271025 -4.61583931422906 -11.050906498897168 0.0 0.0 0.0 2.0365238438859197 -0.1689006882244939 6.809595682098351 -36.04617987889696 3.857613868659689 -32.69297477580299 -56.07749763007512 -10.142529832359752 11.899373456111443 0.0 0.0 0.0
-380.1592148680812 218.13845158835875 698.9999365702164 0.0026569636163748544 0.6056281956063294 -0.04483766536702523 0.4555041424292874 -1.3998292551773779 -0.24177353490011658 -5.3192048510913175 -3.382903672406049 3.7387040699817327 0.0 0.0 0.0 5.267583689375483 -0.5397236078939365 7.954442360962602 41.01959197716063 8.134446072148593 23.18447203208459 41.442389782858015 -4.605361897098713 -11.08960610523021 0.0 0.0 0.0 2.0380462976738176 -0.16913761912753703 6.815627760419112 -36.05242290116163 3.855174774440756 -32.701585224898935 -56.07949468861331 -10.142541827649348 11.900171907581313 0.0 0.0 0.0
-380.3565605128356 218.13252090739346 698.9552994387423 -0.002105678888667457 0.5975494331698474 -0.011624234009076162 0.4553031280605451 -1.3928431383138857 -0.2410351991234907 -5.315347370830325 -3.3831953406088635 3.7360260894451205 0.0 0.0 0.0 5.2628525935405 -0.5400485598571795 7.957514031432036 40.996350485173934 8.125703844295387 23.19374925049749 41.4799342995585 -4.594131344423163 -11.130945318113028 0.0 0.0 0.0 2.0394967218430677 -0.1693830390744553 6.822315237042699 -36.05794958685476 3.8524373377516965 -32.71052404232457 -56.08130216501273 -10.142258282623073 11.901545497273405 0.0 0.0 0.0
-380.5584495636689 218.12767671227587 698.9117205406721 -0.006788742464615757 0.5895015220427348 0.022351712488186414 0.45510553973332774 -1.385529816315893 -0.24026534258818255 -5.311536515972472 -3.383585592952599 3.733384004639258 0.0 0.0 0.0 5.258313013492874 -0.5404002396986956 7.960821090531796 40.97148466358965 8.1156526571765 23.205470704551658 41.51957548162196 -4.58220108074129 -11.174700555124977 0.0 0.0 0.0 2.040831769847253 -0.1696330346232143 6.829622567780202 -36.06274486046158 3.8494289380521547 -32.719721780661686 -56.083103597522076 -10.141627430037037 11.90368443542288 0.0 0.0 0.0
-380.7642492751595 218.1238126771627 698.8690928442154 -0.011405813130070263 0.5815007571047623 0.0569369242207314 0.45494930158985497 -1.377909610418993 -0.23947499100452227 -5.30780562398111 -3.3840646512617827 3.7308007036426045 0.0 0.0 0.0 5.254053372560811 -0.5407813540007752 7.964384867150448 40.944978727724816 8.104299404031504 23.219616872491404 41.56106036913961 -4.5696214364602525 -11.22064711393163 0.0 0.0 0.0 2.0419984080337206 -0.16988270156974766 6.837501627138996 -36.066803294786915 3.846185839212577 -32.72909351716131 -56.08506624691201 -10.140606595961353 11.90675205315967 0.0 0.0 0.0
-380.9733155380872 218.12082156395923 698.8272937997515 -0.015970460454468382 0.5735651296811783 0.09198370219116576 0.4548718335618921 -1.3700053451744914 -0.2386752875920944 -5.304186906960356 -3.3846235207666484 3.7282983183017837 0.0 0.0 0.0 5.250170305430616 -0.5411948518844152 7.968228479379724 40.91679960526775 8.091666924354076 23.236118477212962 41.60411348570721 -4.5564342104085185 -11.268576944039404 0.0 0.0 0.0 2.042934474294031 -0.17012617448090844 6.845891437530242 -36.07012858240229 3.842753143609052 -32.73853868238734 -56.087336146858426 -10.139162317222874 11.91088247641433 0.0 0.0 0.0
-381.18500573655723 218.11859768295614 698.7861930094846 -0.02049559931530891 0.5657130309311211 0.12735310909337094 0.4549089647053664 -1.3618422214267034 -0.23787722165747482 -5.300710689014597 -3.38525254559007 3.725897642938103 0.0 0.0 0.0 5.246767927259123 -0.5416441146194595 7.97237852642468 40.88689076785958 8.07779271857327 23.2548561673172 41.64844871887312 -4.542667086832829 -11.318317172326182 0.0 0.0 0.0 2.04356978131566 -0.17035670637455202 6.854718360451481 -36.07273292020562 3.8391844212436363 -32.747941583004476 -56.090034258832794 -10.137270151370764 11.916179435461453 0.0 0.0 0.0
-381.39869239075426 218.11703896019023 698.7456606353138 -0.024992855329003555 0.5579619681944896 0.16291784537718002 0.4550937953783139 -1.3534477689897746 -0.23709135354500474 -5.2974047362265635 -3.3859399302653794 3.7236176165245283 0.0 0.0 0.0 5.243956522561892 -0.5421331262259393 7.976866626909167 40.855166598159165 8.062727134360575 23.275661850644436 41.69378266762833 -4.528328133822451 -11.369748637120246 0.0 0.0 0.0 2.0438278416882016 -0.17056680873876134 6.863896927093218 -36.07463638130153 3.8355409703700465 -32.75717275506353 -56.093253882432066 -10.13491426314301 11.922716093005956 0.0 0.0 0.0
-381.61377718575926 218.11604857498926 698.7055761825061 -0.029471977948631184 0.5503273438114974 0.19856467920808565 0.4554555537003643 -1.3448518037256352 -0.23632753939338472 -5.294293696891549 -3.3866704316457024 3.7214748876523136 0.0 0.0 0.0 5.241850596870922 -0.5426666141324757 7.981730706202775 40.821507586084444 8.046531083637118 23.298321704690803 41.739849015584795 -4.513400622205089 -11.422823644381246 0.0 0.0 0.0 2.04362826201012 -0.1707484586037806 6.873331421289062 -36.07586634410601 3.831890689948932 -32.766091228047465 -56.097059357985586 -10.132086875715324 11.930535715634813 0.0 0.0 0.0
-381.829704932953 218.1155361517447 698.665837266104 -0.033940348326417166 0.5428213347586995 0.23419636898998838 0.4560185038540766 -1.3360863013837765 -0.2355946607444024 -5.291398652115784 -3.387424422200337 3.7194834692457572 0.0 0.0 0.0 5.240566239929327 -0.5432501439757774 7.987015890491078 40.78575665172286 8.029273356682118 23.32258086842099 41.786413413889136 -4.497838400298697 -11.47758216562801 0.0 0.0 0.0 2.0428898116155434 -0.17089337449983966 6.882918242526404 -36.07645704089764 3.8283065715988904 -32.774547714204424 -56.10148598028572 -10.12878767009653 11.939652973650693 0.0 0.0 0.0
-382.04597697736347 218.11541850927483 698.6263679561458 -0.038402625647423735 0.5354519001975891 0.26973306382770074 0.45680096914592233 -1.3271850993109702 -0.23490036513601303 -5.288736762526015 -3.388177502466151 3.717654479156246 0.0 0.0 0.0 5.240217771653439 -0.5438901473400652 7.99277481765713 40.74771687265098 8.011027597545999 23.34814981078459 41.833288304423625 -4.4815620403602665 -11.534165749649995 0.0 0.0 0.0 2.0415341197413976 -0.170993357330634 6.8925489910962074 -36.076449268982 3.8248648447879563 -32.78238866921808 -56.106540952455376 -10.125023203729649 11.950055642372076 0.0 0.0 0.0
-382.26216355888266 218.11561998893 698.5871263013412 -0.042860566108601526 0.5282219288134716 0.3051132008751043 0.45781452654062904 -1.3181833401280447 -0.23425082255984278 -5.28632098399027 -3.3889008020101894 3.715995952485578 0.0 0.0 0.0 5.2409136898395206 -0.5445938581175568 7.999067146825432 40.70715084145686 7.991869001172948 23.374712348556717 41.880347085579864 -4.464455938923008 -11.592828512426513 0.0 0.0 0.0 2.0394898970252076 -0.17104068617373713 6.9021141509292185 -36.07589026979121 3.8216428273425964 -32.78946111020121 -56.112205175024826 -10.120806400497761 11.961706503849445 0.0 0.0 0.0
-382.4779146620462 218.11607239795873 698.5481106466324 -0.04731303508591008 0.5211285176462414 0.3402939346399413 0.45906341247428245 -1.3091165761135743 -0.23365049903157473 -5.284159815092371 -3.3895620572385 3.714512702662275 0.0 0.0 0.0 5.242752008969735 -0.5453691350447109 8.005958065371622 40.66378179797992 7.971870798408181 23.40193522381788 41.92753702080439 -4.446366508414297 -11.653944692475015 0.0 0.0 0.0 2.0366975180683378 -0.17102855343484305 6.911507210571584 -36.07483372506236 3.8187165396975136 -32.795618035223754 -56.11843569079039 -10.116156137640118 11.974545316016897 0.0 0.0 0.0
-382.6929689482197 218.11671461705453 698.5093643893048 -0.05175621899389793 0.5141623516929767 0.375251131674238 0.4605441597165145 -1.3000194619295582 -0.23310194457874334 -5.282257037947106 -3.3901274913272386 3.7132062053405566 0.0 0.0 0.0 5.245815160965729 -0.546224156568297 8.01351567036709 40.61729658270794 7.951100617197857 23.429479039528044 41.97489031009169 -4.427101545039129 -11.718012400661294 0.0 0.0 0.0 2.0331137456080444 -0.170951519018278 6.920629060030965 -36.07333975633115 3.8161581375747686 -32.800724266386084 -56.12516866667308 -10.11109692113239 11.9884908152329 0.0 0.0 0.0
-382.90716045294187 218.11749193045475 698.4709788643677 -0.05618403269104987 0.5073071337614018 0.40997894723392414 0.46224547028551255 -1.290923980594798 -0.23260559110214288 -5.2806114274919125 -3.390564449094343 3.712074486171327 0.0 0.0 0.0 5.250164707280508 -0.5471669886160039 8.02180723275159 40.56735036011873 7.929616843051918 23.45701020944512 42.022532779024495 -4.406430801820875 -11.78565334244691 0.0 0.0 0.0 2.0287163289722696 -0.17080595947115437 6.929392519650631 -36.071474764597376 3.814033213144602 -32.8046625246873 -56.13232285238301 -10.105658608297254 12.003442813917593 0.0 0.0 0.0
-383.12042284495766 218.1183551433763 698.4330941175581 -0.06058871246201032 0.5005390023151267 0.4444889755029041 0.464148323639481 -1.2818571770949625 -0.23215955708040995 -5.279216431903352 -3.3908446627249114 3.711112010056446 0.0 0.0 0.0 5.255836176548908 -0.5482050430754281 8.030894509375736 40.51357297739728 7.9074651391852 23.48421343922607 42.07068968289352 -4.384087739717566 -11.85760843716424 0.0 0.0 0.0 2.023508175722922 -0.1705904854867434 6.9377268752543895 -36.06931093077124 3.812398021671316 -32.80733952058046 -56.1398034828351 -10.09987611817355 12.019284505865285 0.0 0.0 0.0
